<svg xmlns="http://www.w3.org/2000/svg" width="75" viewBox="0 0 75 75" height="75" version="1.0"><defs><clipPath id="a"><path d="M 5.699219 62 L 60 62 L 60 69.449219 L 5.699219 69.449219 Z M 5.699219 62"/></clipPath><clipPath id="b"><path d="M 8 66 L 58 66 L 58 69.449219 L 8 69.449219 Z M 8 66"/></clipPath><clipPath id="c"><path d="M 30 5.699219 L 41 5.699219 L 41 35 L 30 35 Z M 30 5.699219"/></clipPath></defs><path fill="#E1DCC9" d="M 31.515625 36.054688 L 8.375 36.054688 C 8.375 36.054688 8.375 53.691406 20.464844 63.835938 L 44.746094 63.835938 C 56.839844 53.691406 56.839844 36.054688 56.839844 36.054688 L 31.515625 36.054688"/><path fill="#D9D2BC" d="M 44.746094 63.835938 L 20.464844 63.835938 C 8.421875 53.734375 8.375 36.203125 8.375 36.058594 C 8.375 36.058594 8.375 36.058594 8.375 36.054688 L 15.242188 36.054688 C 19.308594 41.40625 28.722656 54.867188 51.800781 55.09375 C 50.09375 58.21875 47.808594 61.265625 44.746094 63.835938"/><g clip-path="url(#a)"><path fill="#E1DCC9" d="M 5.714844 62.976562 C 5.875 66.535156 12.164062 69.375 15.363281 69.375 L 49.847656 69.375 C 53.050781 69.375 59.335938 66.535156 59.496094 62.976562 L 5.714844 62.976562"/></g><g clip-path="url(#b)"><path fill="#C6BCA0" d="M 8.195312 66.71875 C 10.351562 68.332031 13.421875 69.375 15.363281 69.375 L 49.847656 69.375 C 51.789062 69.375 54.859375 68.332031 57.015625 66.71875 L 8.195312 66.71875"/></g><path fill="#E1DCC9" d="M 56.675781 38.726562 C 56.675781 38.726562 65.6875 34.203125 67.742188 41.097656 C 69.464844 46.863281 60.101562 54.585938 51.214844 56.125 L 52 54.578125 C 52 54.578125 66.628906 45.960938 63.628906 41.921875 C 60.953125 38.320312 56.117188 42.640625 56.117188 42.640625 L 56.675781 38.726562"/><g clip-path="url(#c)"><path fill="#9E9070" d="M 34.097656 34.722656 C 34.097656 34.722656 41.09375 29.507812 39.859375 21.964844 C 38.625 14.417969 31.765625 10.4375 34.097656 5.773438 C 34.097656 5.773438 29.84375 8.65625 30.535156 13.730469 C 31.132812 18.132812 38.761719 28.824219 34.097656 34.722656"/></g><path fill="#9E9070" d="M 27.65625 34.722656 C 27.65625 34.722656 32.363281 31.214844 31.53125 26.136719 C 30.703125 21.058594 26.085938 18.378906 27.65625 15.238281 C 27.65625 15.238281 24.792969 17.179688 25.257812 20.597656 C 25.660156 23.558594 30.792969 30.753906 27.65625 34.722656"/></svg>