<svg xmlns="http://www.w3.org/2000/svg" width="75" viewBox="0 0 75 75" height="75" version="1.0"><defs><clipPath id="a"><path d="M 43 10.800781 L 67.5 10.800781 L 67.5 35 L 43 35 Z M 43 10.800781"/></clipPath></defs><g clip-path="url(#a)"><path fill="#939393" d="M 66.84375 18.949219 L 55.117188 29.929688 C 54.753906 30.292969 54.160156 30.292969 53.796875 29.929688 C 53.433594 29.566406 53.429688 28.972656 53.796875 28.609375 L 64.808594 16.914062 L 64.136719 16.246094 L 52.410156 27.230469 C 52.046875 27.59375 51.453125 27.59375 51.089844 27.230469 C 50.726562 26.863281 50.726562 26.273438 51.089844 25.910156 L 62.097656 14.214844 L 61.433594 13.546875 L 49.703125 24.527344 C 49.339844 24.894531 48.75 24.894531 48.382812 24.527344 C 48.019531 24.164062 48.019531 23.574219 48.382812 23.210938 L 59.394531 11.515625 L 58.730469 10.851562 L 44.839844 24.707031 C 43.148438 26.394531 43.148438 29.125 44.839844 30.8125 L 47.496094 33.464844 C 49.1875 35.148438 51.929688 35.148438 53.617188 33.464844 L 67.507812 19.609375 L 66.84375 18.949219"/></g><path fill="#939393" d="M 45.136719 31.109375 L 15.570312 57.917969 C 14.257812 59.226562 14.257812 61.347656 15.570312 62.652344 C 16.882812 63.964844 19.007812 63.964844 20.320312 62.652344 L 47.199219 33.167969 L 45.136719 31.109375"/><path fill="#939393" d="M 26.503906 33.167969 L 53.386719 62.652344 C 54.695312 63.964844 56.824219 63.964844 58.136719 62.652344 C 59.449219 61.347656 59.449219 59.226562 58.136719 57.917969 L 28.570312 31.109375 L 26.503906 33.167969"/><path fill="#939393" d="M 25.816406 19.28125 C 20.488281 13.96875 13.671875 12.15625 10.585938 15.230469 C 7.503906 18.308594 9.320312 25.105469 14.648438 30.417969 C 19.972656 35.730469 26.792969 37.542969 29.875 34.46875 C 32.957031 31.394531 31.140625 24.59375 25.816406 19.28125"/></svg>