<svg xmlns="http://www.w3.org/2000/svg" width="75" viewBox="0 0 75 75" height="75" version="1.0"><defs><clipPath id="a"><path d="M 29 7.5 L 36 7.5 L 36 12 L 29 12 Z M 29 7.5"/></clipPath><clipPath id="b"><path d="M 26.15625 17 L 48.65625 17 L 48.65625 67.5 L 26.15625 67.5 Z M 26.15625 17"/></clipPath></defs><g clip-path="url(#a)"><path fill="#7F96C8" d="M 30.230469 7.761719 C 30.722656 7.636719 31.800781 7.492188 32.277344 7.703125 C 32.757812 7.914062 33.335938 8.851562 33.679688 9.265625 C 33.925781 9.5625 34.085938 9.902344 34.335938 10.207031 C 34.589844 10.515625 34.929688 10.804688 35.167969 11.136719 C 34.28125 11.53125 33.292969 11.679688 32.332031 11.738281 C 31.691406 11.777344 30.621094 11.992188 30.121094 11.460938 C 29.582031 10.878906 29.207031 8.023438 30.230469 7.761719 Z M 30.230469 7.761719"/></g><g clip-path="url(#b)"><path fill="#DFD6D2" d="M 48.5625 41.457031 C 48.5625 39.132812 48.078125 36.875 48.078125 34.550781 C 48.078125 32.445312 48.054688 30.34375 47.980469 28.253906 C 47.867188 25.015625 47.894531 20.957031 45.445312 18.320312 C 44.457031 17.253906 42.445312 17.421875 41.019531 17.28125 C 39.777344 17.160156 38.59375 17.257812 37.394531 17.347656 C 36.191406 17.257812 35.007812 17.160156 33.765625 17.28125 C 32.339844 17.421875 30.328125 17.253906 29.339844 18.320312 C 26.890625 20.957031 26.917969 25.015625 26.804688 28.253906 C 26.730469 30.34375 26.707031 32.445312 26.707031 34.550781 C 26.707031 36.875 26.222656 39.132812 26.222656 41.457031 C 26.222656 43.335938 26.160156 45.199219 26.441406 47.042969 C 26.785156 49.292969 27.191406 51.386719 27.191406 53.683594 C 27.191406 55.890625 26.730469 58.042969 26.707031 60.230469 C 26.691406 61.828125 26.859375 63.941406 27.945312 65.253906 C 29.800781 67.5 34.390625 67.15625 37.394531 67.046875 C 40.394531 67.15625 44.984375 67.5 46.839844 65.253906 C 47.925781 63.941406 48.09375 61.828125 48.078125 60.230469 C 48.054688 58.042969 47.59375 55.890625 47.59375 53.683594 C 47.59375 51.386719 48 49.292969 48.34375 47.042969 C 48.625 45.199219 48.5625 43.335938 48.5625 41.457031 Z M 48.5625 41.457031"/></g><path fill="#89CFE1" d="M 46.597656 35.324219 C 46.59375 33.503906 46.578125 31.6875 46.519531 29.878906 C 46.425781 29.890625 46.328125 29.898438 46.230469 29.898438 C 44.015625 29.902344 42.277344 27.464844 39.949219 28.304688 C 38.019531 29.003906 36.765625 30.796875 34.480469 30.050781 C 33.410156 29.699219 32.421875 29.0625 31.3125 28.84375 C 30.242188 28.636719 29.261719 28.84375 28.289062 29.214844 C 28.285156 29.367188 28.277344 29.519531 28.273438 29.667969 C 28.210938 31.542969 28.191406 33.433594 28.191406 35.324219 C 28.191406 37.414062 27.773438 39.445312 27.773438 41.53125 C 27.773438 43.21875 27.71875 44.894531 27.960938 46.550781 C 28.257812 48.574219 28.605469 50.453125 28.605469 52.515625 C 28.605469 54.5 28.210938 56.433594 28.191406 58.398438 C 28.175781 59.832031 28.320312 61.734375 29.253906 62.914062 C 30.855469 64.929688 34.808594 64.621094 37.394531 64.523438 C 39.976562 64.621094 43.929688 64.929688 45.53125 62.914062 C 46.464844 61.734375 46.609375 59.832031 46.597656 58.398438 C 46.578125 56.433594 46.179688 54.5 46.179688 52.515625 C 46.179688 50.453125 46.527344 48.574219 46.824219 46.550781 C 47.070312 44.894531 47.011719 43.21875 47.011719 41.53125 C 47.011719 39.441406 46.597656 37.414062 46.597656 35.324219 Z M 46.597656 35.324219"/><path fill="#7F96C8" d="M 45.835938 15.664062 C 45.460938 15.484375 44.921875 15.566406 44.507812 15.566406 L 30.585938 15.566406 C 30.167969 15.566406 29.632812 15.484375 29.257812 15.664062 C 29.25 15.746094 29.253906 15.828125 29.25 15.914062 C 29.234375 16.390625 29.613281 17.105469 29.992188 17.402344 C 30.472656 17.78125 31.070312 17.984375 31.675781 17.984375 C 33.039062 17.984375 34.410156 17.957031 35.765625 18.015625 C 36.355469 18.039062 36.949219 18.042969 37.546875 18.039062 C 38.140625 18.042969 38.734375 18.039062 39.328125 18.015625 C 40.683594 17.957031 42.054688 17.984375 43.414062 17.984375 C 44.023438 17.984375 44.621094 17.78125 45.097656 17.402344 C 45.476562 17.105469 45.859375 16.390625 45.839844 15.914062 C 45.835938 15.828125 45.839844 15.746094 45.835938 15.664062 Z M 45.835938 15.664062"/><path fill="#9AACD4" d="M 33.179688 10.777344 C 32.609375 10.777344 32.039062 10.730469 31.46875 10.714844 C 30.929688 10.703125 30.417969 10.75 29.890625 10.816406 C 29.691406 10.839844 29.488281 10.828125 29.289062 10.828125 C 28.957031 10.832031 28.542969 10.890625 28.25 11.058594 C 28.113281 11.136719 28 11.226562 27.933594 11.375 C 27.835938 11.597656 27.875 11.796875 27.863281 12.035156 C 27.824219 12.933594 27.703125 13.84375 27.824219 14.742188 C 27.933594 15.554688 28.320312 16.332031 29.242188 16.304688 C 30.164062 16.277344 31.140625 16.042969 32.148438 16.042969 C 33.40625 16.042969 34.664062 16.042969 35.925781 16.042969 C 38.351562 16.042969 40.773438 16.042969 43.199219 16.042969 C 43.941406 16.042969 44.683594 16.039062 45.425781 16.042969 C 46.375 16.046875 46.816406 16.054688 46.96875 15.097656 C 47.105469 14.230469 46.886719 13.292969 46.96875 12.417969 C 47.058594 11.460938 46.753906 10.949219 46.113281 10.90625 C 44.226562 10.773438 42.761719 10.84375 41.058594 10.839844 C 38.355469 10.835938 35.90625 10.777344 33.179688 10.777344 Z M 33.179688 10.777344"/><path fill="#B5C6CE" d="M 45.835938 26.253906 C 45.839844 26.222656 45.84375 26.191406 45.839844 26.15625 C 45.585938 23.746094 44.808594 21.507812 42.527344 20.382812 C 41.515625 19.886719 40.167969 19.65625 39.121094 20.171875 C 37.996094 20.726562 38.855469 21.757812 39.539062 22.222656 C 40.515625 22.882812 41.617188 23.402344 42.347656 24.363281 C 43.183594 25.460938 43.023438 26.65625 43.242188 27.929688 C 43.40625 28.882812 44.515625 29.453125 45.246094 28.652344 C 45.863281 27.972656 45.796875 27.117188 45.835938 26.253906 Z M 45.835938 26.253906"/></svg>