<svg xmlns="http://www.w3.org/2000/svg" width="75" viewBox="0 0 75 75" height="75" version="1.0"><defs><clipPath id="a"><path d="M 22 19 L 59 19 L 59 56.769531 L 22 56.769531 Z M 22 19"/></clipPath><clipPath id="b"><path d="M 15 19 L 23 19 L 23 56.769531 L 15 56.769531 Z M 15 19"/></clipPath><clipPath id="c"><path d="M 59 19 L 67.5 19 L 67.5 56.769531 L 59 56.769531 Z M 59 19"/></clipPath><clipPath id="d"><path d="M 9 39 L 13 39 L 13 56.769531 L 9 56.769531 Z M 9 39"/></clipPath></defs><g clip-path="url(#a)"><path fill="#E8E8E8" d="M 58.65625 38.011719 C 58.65625 48.136719 50.515625 56.339844 40.472656 56.339844 C 30.429688 56.339844 22.285156 48.136719 22.285156 38.011719 C 22.285156 27.890625 30.429688 19.683594 40.472656 19.683594 C 50.515625 19.683594 58.65625 27.890625 58.65625 38.011719"/></g><path fill="#D3D2D2" d="M 50.910156 38.011719 L 50.335938 38.011719 C 50.335938 40.761719 49.234375 43.238281 47.445312 45.039062 C 45.660156 46.84375 43.199219 47.953125 40.472656 47.953125 C 37.746094 47.953125 35.28125 46.84375 33.496094 45.039062 C 31.710938 43.238281 30.609375 40.761719 30.609375 38.011719 C 30.609375 35.265625 31.710938 32.785156 33.496094 30.984375 C 35.28125 29.183594 37.746094 28.074219 40.472656 28.074219 C 43.199219 28.074219 45.660156 29.183594 47.445312 30.984375 C 49.234375 32.785156 50.335938 35.265625 50.335938 38.011719 L 51.484375 38.011719 C 51.484375 31.882812 46.554688 26.914062 40.472656 26.914062 C 34.390625 26.914062 29.460938 31.882812 29.460938 38.011719 C 29.460938 44.140625 34.390625 49.109375 40.472656 49.113281 C 46.554688 49.109375 51.484375 44.140625 51.484375 38.011719 L 50.910156 38.011719"/><g clip-path="url(#b)"><path fill="#D3D2D2" d="M 20.859375 19.292969 L 20.859375 27.90625 C 20.859375 28.261719 20.570312 28.554688 20.214844 28.554688 C 19.855469 28.554688 19.566406 28.261719 19.566406 27.90625 L 19.566406 19.292969 L 17.886719 19.292969 L 17.886719 27.90625 C 17.886719 28.261719 17.59375 28.554688 17.238281 28.554688 C 16.878906 28.554688 16.589844 28.261719 16.589844 27.90625 L 16.589844 19.292969 L 15.035156 19.292969 L 15.035156 28.292969 C 15.035156 30.664062 16.195312 32.652344 17.761719 33.214844 L 17.761719 33.25 L 16.984375 55.042969 C 16.984375 55.976562 17.734375 56.734375 18.660156 56.734375 C 19.585938 56.734375 20.335938 55.976562 20.335938 55.042969 L 19.703125 33.382812 C 19.703125 33.3125 19.703125 33.238281 19.699219 33.167969 C 21.195312 32.542969 22.285156 30.597656 22.285156 28.292969 L 22.285156 19.292969 L 20.859375 19.292969"/></g><g clip-path="url(#c)"><path fill="#D3D2D2" d="M 63.234375 19.292969 C 59.261719 19.296875 59.09375 25.164062 59.09375 28.378906 C 59.09375 31.425781 60.769531 32.652344 62.335938 33.214844 L 62.335938 33.25 L 61.558594 55.042969 C 61.558594 55.976562 62.308594 56.734375 63.234375 56.734375 C 64.160156 56.734375 64.910156 55.976562 64.910156 55.042969 L 64.273438 33.382812 C 64.273438 33.3125 64.273438 33.238281 64.273438 33.167969 C 65.765625 32.542969 67.378906 30.683594 67.378906 28.378906 C 67.378906 26.554688 67.207031 19.289062 63.234375 19.292969"/></g><g clip-path="url(#d)"><path fill="#D3D2D2" d="M 10.132812 39.300781 L 9.605469 55.351562 C 9.605469 56.136719 10.355469 56.773438 11.28125 56.773438 C 12.207031 56.773438 12.960938 56.136719 12.960938 55.351562 L 12.523438 39.300781 L 10.132812 39.300781"/></g><path fill="#D3D2D2" d="M 10.59375 38.691406 L 12.53125 38.691406 L 12.53125 39.910156 L 10.59375 39.910156 L 10.59375 38.691406"/><path fill="#D3D2D2" d="M 10.160156 22.234375 C 11.105469 19.601562 12.53125 18.507812 12.53125 19.78125 L 12.53125 38.691406 L 10.59375 38.691406 C 7.65625 33.90625 9.175781 24.980469 10.160156 22.234375"/></svg>